<?xml version="1.0" encoding="utf-8"?>
<!-- Generator: Adobe Illustrator 21.1.0, SVG Export Plug-In . SVG Version: 6.00 Build 0)  -->
<svg version="1.1" id="Layer_1" xmlns="http://www.w3.org/2000/svg" xmlns:xlink="http://www.w3.org/1999/xlink" x="0px" y="0px"
	 width="720px" height="366px" viewBox="0 0 720 366" style="enable-background:new 0 0 720 366;" xml:space="preserve">
<style type="text/css">
	.st0{fill:none;stroke:#01606b;stroke-width:8;stroke-linecap:round;stroke-miterlimit:10;}
	.st1{fill:none;stroke:#278547;stroke-width:8}
	.st2{fill:none;stroke:#5AAE4E;stroke-width:8}
	.st3{fill:none;stroke:#9CDC43;stroke-width:8}
	.st4{fill:none;stroke:#DDE751;stroke-width:8}
	.st5{fill:none;stroke:#FBBE45;stroke-width:8}
	.st6{fill:none;stroke:#F57324;stroke-width:8}
	.st7{fill:none;stroke:#CA2029;stroke-width:8}
</style>
<polyline class="st0" points="220,14.5 161.4,69.9 161.5,32.5 104,32.5 103.5,124.5 21.8,190.4 86.5,190.5 87,344 220,343.5 "/>
<polygon class="st1" points="377.5,17 227.5,17 227.5,58.5 377.5,58.5 401,38 "/>
<polygon class="st2" points="424.5,65.5 228,65.5 228,107 424.5,107 448,86.5 "/>
<polygon class="st3" points="468.5,113 228,113 228,154.5 468.5,154.5 492,134 "/>
<polygon class="st4" points="523,160 228.5,160 228.5,201.5 523,201.5 546.5,181 "/>
<polygon class="st5" points="581.5,209.5 228,209.5 228,251 581.5,251 605,230.5 "/>
<polygon class="st6" points="633.5,257 228.5,257 228.5,298.5 633.5,298.5 657,278 "/>
<polygon class="st7" points="677,304.5 227,304.5 227,346 677,346 700.5,325.5 "/>
</svg>
